<?xml version="1.0" encoding="UTF-8"?>
<svg xmlns="http://www.w3.org/2000/svg" width="3600" height="3600" viewBox="0 0 3600 3600">
<rect width="3600" height="3600" fill="#C8BFA7"/>
<rect x="95" y="95" width="3410" height="3410" rx="18" fill="none" stroke="#665746" stroke-opacity=".18" stroke-width="12"/>
<path d="M220 260 q420 -45 840 0 t840 0 t840 0" fill="none" stroke="#665746" stroke-opacity=".10" stroke-width="6"/><path d="M220 480 q420 -45 840 0 t840 0 t840 0" fill="none" stroke="#665746" stroke-opacity=".10" stroke-width="6"/><path d="M220 700 q420 -45 840 0 t840 0 t840 0" fill="none" stroke="#665746" stroke-opacity=".10" stroke-width="6"/><path d="M220 920 q420 -45 840 0 t840 0 t840 0" fill="none" stroke="#665746" stroke-opacity=".10" stroke-width="6"/><path d="M220 1140 q420 -45 840 0 t840 0 t840 0" fill="none" stroke="#665746" stroke-opacity=".10" stroke-width="6"/><path d="M220 1360 q420 -45 840 0 t840 0 t840 0" fill="none" stroke="#665746" stroke-opacity=".10" stroke-width="6"/><path d="M220 1580 q420 -45 840 0 t840 0 t840 0" fill="none" stroke="#665746" stroke-opacity=".10" stroke-width="6"/><path d="M220 1800 q420 -45 840 0 t840 0 t840 0" fill="none" stroke="#665746" stroke-opacity=".10" stroke-width="6"/><path d="M220 2020 q420 -45 840 0 t840 0 t840 0" fill="none" stroke="#665746" stroke-opacity=".10" stroke-width="6"/><path d="M220 2240 q420 -45 840 0 t840 0 t840 0" fill="none" stroke="#665746" stroke-opacity=".10" stroke-width="6"/><path d="M220 2460 q420 -45 840 0 t840 0 t840 0" fill="none" stroke="#665746" stroke-opacity=".10" stroke-width="6"/><path d="M220 2680 q420 -45 840 0 t840 0 t840 0" fill="none" stroke="#665746" stroke-opacity=".10" stroke-width="6"/><path d="M220 2900 q420 -45 840 0 t840 0 t840 0" fill="none" stroke="#665746" stroke-opacity=".10" stroke-width="6"/><path d="M220 3120 q420 -45 840 0 t840 0 t840 0" fill="none" stroke="#665746" stroke-opacity=".10" stroke-width="6"/><path d="M220 3340 q420 -45 840 0 t840 0 t840 0" fill="none" stroke="#665746" stroke-opacity=".10" stroke-width="6"/><circle cx="180" cy="170" r="3" fill="#665746" opacity=".10"/><circle cx="251" cy="319" r="4" fill="#665746" opacity=".10"/><circle cx="322" cy="468" r="5" fill="#665746" opacity=".10"/><circle cx="393" cy="617" r="6" fill="#665746" opacity=".10"/><circle cx="464" cy="766" r="3" fill="#665746" opacity=".10"/><circle cx="535" cy="915" r="4" fill="#665746" opacity=".10"/><circle cx="606" cy="1064" r="5" fill="#665746" opacity=".10"/><circle cx="677" cy="1213" r="6" fill="#665746" opacity=".10"/><circle cx="748" cy="1362" r="3" fill="#665746" opacity=".10"/><circle cx="819" cy="1511" r="4" fill="#665746" opacity=".10"/><circle cx="890" cy="1660" r="5" fill="#665746" opacity=".10"/><circle cx="961" cy="1809" r="6" fill="#665746" opacity=".10"/><circle cx="1032" cy="1958" r="3" fill="#665746" opacity=".10"/><circle cx="1103" cy="2107" r="4" fill="#665746" opacity=".10"/><circle cx="1174" cy="2256" r="5" fill="#665746" opacity=".10"/><circle cx="1245" cy="2405" r="6" fill="#665746" opacity=".10"/><circle cx="1316" cy="2554" r="3" fill="#665746" opacity=".10"/><circle cx="1387" cy="2703" r="4" fill="#665746" opacity=".10"/><circle cx="1458" cy="2852" r="5" fill="#665746" opacity=".10"/><circle cx="1529" cy="3001" r="6" fill="#665746" opacity=".10"/><circle cx="1600" cy="3150" r="3" fill="#665746" opacity=".10"/><circle cx="1671" cy="3299" r="4" fill="#665746" opacity=".10"/><circle cx="1742" cy="188" r="5" fill="#665746" opacity=".10"/><circle cx="1813" cy="337" r="6" fill="#665746" opacity=".10"/><circle cx="1884" cy="486" r="3" fill="#665746" opacity=".10"/><circle cx="1955" cy="635" r="4" fill="#665746" opacity=".10"/><circle cx="2026" cy="784" r="5" fill="#665746" opacity=".10"/><circle cx="2097" cy="933" r="6" fill="#665746" opacity=".10"/><circle cx="2168" cy="1082" r="3" fill="#665746" opacity=".10"/><circle cx="2239" cy="1231" r="4" fill="#665746" opacity=".10"/><circle cx="2310" cy="1380" r="5" fill="#665746" opacity=".10"/><circle cx="2381" cy="1529" r="6" fill="#665746" opacity=".10"/><circle cx="2452" cy="1678" r="3" fill="#665746" opacity=".10"/><circle cx="2523" cy="1827" r="4" fill="#665746" opacity=".10"/><circle cx="2594" cy="1976" r="5" fill="#665746" opacity=".10"/><circle cx="2665" cy="2125" r="6" fill="#665746" opacity=".10"/><circle cx="2736" cy="2274" r="3" fill="#665746" opacity=".10"/><circle cx="2807" cy="2423" r="4" fill="#665746" opacity=".10"/><circle cx="2878" cy="2572" r="5" fill="#665746" opacity=".10"/><circle cx="2949" cy="2721" r="6" fill="#665746" opacity=".10"/><circle cx="3020" cy="2870" r="3" fill="#665746" opacity=".10"/><circle cx="3091" cy="3019" r="4" fill="#665746" opacity=".10"/><circle cx="3162" cy="3168" r="5" fill="#665746" opacity=".10"/><circle cx="3233" cy="3317" r="6" fill="#665746" opacity=".10"/><circle cx="3304" cy="206" r="3" fill="#665746" opacity=".10"/>
<path d="M170 170h260M170 170v260M3430 170h-260M3430 170v260M170 3430h260M170 3430v-260M3430 3430h-260M3430 3430v-260" fill="none" stroke="#665746" stroke-opacity=".22" stroke-width="10"/>
<text x="180" y="3360" font-family="Georgia,DejaVu Serif,serif" font-size="30" letter-spacing="4" fill="#665746" opacity=".30">SECRET LIBRARY • 015 • DISTRESSED VELLUM</text>
</svg>