<?xml version="1.0" encoding="UTF-8"?><svg xmlns="http://www.w3.org/2000/svg" width="2550" height="3300" viewBox="0 0 2550 3300"><rect width="2550" height="3300" fill="#E9E0CA"/><style>text{font-family:Georgia,DejaVu Serif,serif;fill:#382F26}.title{font-size:62px;font-weight:700;letter-spacing:2px}.sub{font-size:29px;font-style:italic;fill:#594B39}.label{font-size:25px;font-weight:700;letter-spacing:1px}.small{font-size:20px;fill:#594B39}.tiny{font-size:17px;fill:#594B39}.center{text-anchor:middle}.box{fill:none;stroke:#5D4B37;stroke-opacity:.38;stroke-width:3}.frame{fill:none;stroke:#4D3E2D;stroke-opacity:.48;stroke-width:5}.inner{fill:none;stroke:#6A5741;stroke-opacity:.32;stroke-width:2}.plate{font-size:72px;font-weight:700;text-anchor:middle;letter-spacing:5px}.seal{fill:none;stroke:#59432D;stroke-width:3;stroke-opacity:.55}</style><text x="1275" y="205" class="title center">MARGINALIA</text><text x="1275" y="335" class="sub center">Notes in the spirit of the old margins</text><line x1="330" y1="430" x2="2220" y2="430" stroke="#4D3E2D" stroke-opacity=".42" stroke-width="3"/><text x="330" y="392" class="tiny">SL • 008</text><path d="M150 220 Q210 145 275 220" fill="none" stroke="#5D4B37" stroke-opacity=".45" stroke-width="4"/><path d="M2400 220 Q2340 145 2275 220" fill="none" stroke="#5D4B37" stroke-opacity=".45" stroke-width="4"/><rect x="300" y="620" width="1450" height="2250" rx="22" class="box"/><text x="328" y="662" class="label">PASSAGE</text><line x1="328" y1="708" x2="1722" y2="708"/><line x1="328" y1="860.7142857142858" x2="1722" y2="860.7142857142858"/><line x1="328" y1="1013.4285714285714" x2="1722" y2="1013.4285714285714"/><line x1="328" y1="1166.142857142857" x2="1722" y2="1166.142857142857"/><line x1="328" y1="1318.857142857143" x2="1722" y2="1318.857142857143"/><line x1="328" y1="1471.5714285714287" x2="1722" y2="1471.5714285714287"/><line x1="328" y1="1624.2857142857142" x2="1722" y2="1624.2857142857142"/><line x1="328" y1="1777" x2="1722" y2="1777"/><line x1="328" y1="1929.7142857142858" x2="1722" y2="1929.7142857142858"/><line x1="328" y1="2082.4285714285716" x2="1722" y2="2082.4285714285716"/><line x1="328" y1="2235.1428571428573" x2="1722" y2="2235.1428571428573"/><line x1="328" y1="2387.857142857143" x2="1722" y2="2387.857142857143"/><line x1="328" y1="2540.5714285714284" x2="1722" y2="2540.5714285714284"/><line x1="328" y1="2693.2857142857147" x2="1722" y2="2693.2857142857147"/><rect x="1860" y="620" width="390" height="2250" rx="22" class="box"/><text x="1888" y="662" class="label">MARGIN</text><line x1="1888" y1="708" x2="2222" y2="708"/><line x1="1888" y1="921.8" x2="2222" y2="921.8"/><line x1="1888" y1="1135.6" x2="2222" y2="1135.6"/><line x1="1888" y1="1349.4" x2="2222" y2="1349.4"/><line x1="1888" y1="1563.2" x2="2222" y2="1563.2"/><line x1="1888" y1="1777" x2="2222" y2="1777"/><line x1="1888" y1="1990.8000000000002" x2="2222" y2="1990.8000000000002"/><line x1="1888" y1="2204.6000000000004" x2="2222" y2="2204.6000000000004"/><line x1="1888" y1="2418.4" x2="2222" y2="2418.4"/><line x1="1888" y1="2632.2" x2="2222" y2="2632.2"/><text x="1275" y="3160" class="tiny center">SECRET LIBRARY • DARK ACADEMIA JOURNALING KIT</text></svg>