<?xml version="1.0" encoding="UTF-8"?><svg xmlns="http://www.w3.org/2000/svg" width="2550" height="3300" viewBox="0 0 2550 3300"><rect width="2550" height="3300" fill="#E9E0CA"/><style>text{font-family:Georgia,DejaVu Serif,serif;fill:#382F26}.title{font-size:62px;font-weight:700;letter-spacing:2px}.sub{font-size:29px;font-style:italic;fill:#594B39}.label{font-size:25px;font-weight:700;letter-spacing:1px}.small{font-size:20px;fill:#594B39}.tiny{font-size:17px;fill:#594B39}.center{text-anchor:middle}.box{fill:none;stroke:#5D4B37;stroke-opacity:.38;stroke-width:3}.frame{fill:none;stroke:#4D3E2D;stroke-opacity:.48;stroke-width:5}.inner{fill:none;stroke:#6A5741;stroke-opacity:.32;stroke-width:2}.plate{font-size:72px;font-weight:700;text-anchor:middle;letter-spacing:5px}.seal{fill:none;stroke:#59432D;stroke-width:3;stroke-opacity:.55}</style><text x="1275" y="205" class="title center">BOOK_REVIEW</text><text x="1275" y="335" class="sub center">A considered response to a book</text><line x1="330" y1="430" x2="2220" y2="430" stroke="#4D3E2D" stroke-opacity=".42" stroke-width="3"/><text x="330" y="392" class="tiny">SL • 010</text><path d="M150 220 Q210 145 275 220" fill="none" stroke="#5D4B37" stroke-opacity=".45" stroke-width="4"/><path d="M2400 220 Q2340 145 2275 220" fill="none" stroke="#5D4B37" stroke-opacity=".45" stroke-width="4"/><rect x="300" y="620" width="900" height="480" rx="22" class="box"/><text x="328" y="662" class="label">TITLE / AUTHOR</text><line x1="328" y1="708" x2="1172" y2="708"/><line x1="328" y1="892" x2="1172" y2="892"/><rect x="1350" y="620" width="900" height="480" rx="22" class="box"/><text x="1378" y="662" class="label">FIRST IMPRESSION</text><line x1="1378" y1="708" x2="2222" y2="708"/><line x1="1378" y1="892" x2="2222" y2="892"/><rect x="300" y="1190" width="1950" height="760" rx="22" class="box"/><text x="328" y="1232" class="label">FAVOURITE PASSAGE</text><line x1="328" y1="1278" x2="2222" y2="1278"/><line x1="328" y1="1407.6" x2="2222" y2="1407.6"/><line x1="328" y1="1537.2" x2="2222" y2="1537.2"/><line x1="328" y1="1666.8" x2="2222" y2="1666.8"/><line x1="328" y1="1796.4" x2="2222" y2="1796.4"/><rect x="300" y="2040" width="1950" height="830" rx="22" class="box"/><text x="328" y="2082" class="label">VERDICT / NOTES</text><line x1="328" y1="2128" x2="2222" y2="2128"/><line x1="328" y1="2271.6" x2="2222" y2="2271.6"/><line x1="328" y1="2415.2" x2="2222" y2="2415.2"/><line x1="328" y1="2558.8" x2="2222" y2="2558.8"/><line x1="328" y1="2702.4" x2="2222" y2="2702.4"/><text x="1275" y="3160" class="tiny center">SECRET LIBRARY • DARK ACADEMIA JOURNALING KIT</text></svg>